<?xml version="1.0" standalone="no"?>
<!DOCTYPE svg PUBLIC "-//W3C//DTD SVG 20010904//EN"
 "http://www.w3.org/TR/2001/REC-SVG-20010904/DTD/svg10.dtd">
<svg version="1.0" xmlns="http://www.w3.org/2000/svg"
 width="450.000000pt" height="450.000000pt"
 preserveAspectRatio="xMidYMid meet">

<g transform="translate(-300.000000,618.000000) scale(0.100000,-0.100000)"
fill="#DB1675" stroke="none">
<path d="M5745 6039 c-691 -65 -1311 -355 -1795 -839 -227 -227 -409 -480
-549 -764 -148 -300 -233 -578 -283 -931 -20 -141 -17 -610 5 -760 93 -626
361 -1176 787 -1619 452 -469 1017 -759 1680 -861 145 -22 504 -31 666 -16
571 54 1097 264 1544 617 133 105 404 383 506 519 390 520 586 1106 587 1750
0 367 -50 664 -171 1000 -295 823 -964 1479 -1797 1762 -366 124 -806 177
-1180 142z m540 -715 c473 -77 891 -439 1039 -899 42 -130 58 -222 63 -365 8
-203 -19 -367 -91 -547 -18 -46 -32 -83 -30 -83 15 0 664 332 664 339 0 6 -5
13 -10 16 -6 4 -23 30 -37 58 -24 46 -27 63 -28 147 0 89 2 99 34 158 56 103
134 152 243 152 108 -1 196 -59 248 -165 21 -42 25 -65 25 -145 0 -96 -14
-144 -59 -205 -15 -20 -13 -20 57 -20 60 0 79 -4 118 -27 231 -136 202 -500
-46 -584 -58 -20 -136 -14 -192 14 -52 27 -115 97 -139 155 -10 26 -21 46 -24
44 -3 -1 -331 -165 -729 -365 l-722 -363 -88 50 -88 50 -52 -16 c-29 -8 -51
-17 -48 -19 8 -8 1330 -754 1332 -752 2 2 12 21 23 43 43 85 127 134 228 135
191 0 313 -202 237 -391 -20 -50 -109 -132 -160 -147 -55 -16 -116 -15 -160 3
-45 19 -50 19 -31 -2 59 -67 92 -202 77 -312 -36 -256 -276 -350 -407 -159
-67 97 -85 246 -44 360 l20 57 -76 44 c-304 175 -3375 1907 -3377 1905 -1 -2
-10 -18 -19 -35 -110 -217 -396 -214 -503 5 -24 50 -28 69 -28 147 0 102 18
153 75 218 52 59 111 89 188 95 l67 4 -34 70 c-31 61 -35 78 -34 147 1 131 62
235 170 287 187 92 397 -59 397 -286 0 -61 -5 -86 -27 -135 -16 -33 -35 -67
-43 -76 -13 -14 10 -30 245 -162 143 -81 261 -147 264 -147 2 0 -4 31 -14 69
-46 179 -49 411 -8 599 94 432 395 792 803 958 232 95 471 120 731 78z m2197
-951 c37 -42 30 -98 -15 -128 -33 -21 -74 -10 -92 26 -20 38 -19 62 6 93 25
31 77 36 101 9z m-2697 -1940 c124 -70 222 -130 218 -134 -5 -3 -342 -175
-749 -380 l-742 -374 29 -33 c49 -56 72 -111 77 -188 9 -142 -48 -248 -163
-305 -58 -29 -71 -31 -130 -27 -142 12 -250 128 -263 284 -5 66 15 147 49 196
29 40 16 58 -41 58 -108 0 -199 61 -252 168 -29 59 -33 76 -33 148 0 73 4 88
35 150 110 215 385 216 489 0 13 -25 26 -46 29 -46 4 0 279 137 612 305 333
167 606 304 608 305 1 0 104 -57 227 -127z"/>
<path d="M5552 4686 c-87 -28 -152 -91 -180 -175 -16 -45 -15 -87 3 -147 54
-180 308 -243 452 -111 65 59 87 108 87 187 0 101 -54 184 -152 231 -55 27
-152 34 -210 15z"/>
<path d="M6469 4684 c-25 -7 -66 -32 -91 -54 -157 -137 -97 -376 109 -436 130
-38 275 24 329 141 99 211 -111 422 -347 349z"/>
<path d="M6899 3988 c-87 -23 -103 -95 -29 -126 22 -10 40 -22 40 -28 0 -27
-52 -189 -76 -237 -109 -214 -309 -374 -549 -438 -113 -30 -307 -30 -420 0
-318 85 -560 338 -618 648 -6 30 -4 34 26 46 104 44 53 137 -75 137 -99 0
-158 -40 -139 -93 6 -15 46 -46 68 -53 2 0 9 -36 17 -80 38 -219 171 -422 361
-554 489 -338 1183 -176 1436 335 39 81 79 214 79 267 0 22 8 33 35 49 48 29
56 65 21 95 -27 24 -86 45 -121 43 -11 -1 -36 -5 -56 -11z"/>
<path d="M8396 4364 c-25 -24 -30 -61 -12 -88 30 -47 87 -41 106 10 24 62 -49
123 -94 78z m70 -19 c4 -8 1 -22 -6 -30 -10 -12 -10 -18 0 -30 7 -8 8 -15 4
-15 -5 0 -16 10 -23 23 l-15 22 -7 -25 c-5 -19 -7 -14 -8 23 -1 44 1 47 24 47
14 0 28 -7 31 -15z"/>
<path d="M8420 4335 c0 -10 7 -15 18 -13 21 4 19 22 -2 26 -10 2 -16 -3 -16
-13z"/>
</g>
</svg>
