<?xml version="1.0" standalone="no"?>
<!DOCTYPE svg PUBLIC "-//W3C//DTD SVG 20010904//EN"
 "http://www.w3.org/TR/2001/REC-SVG-20010904/DTD/svg10.dtd">
<svg version="1.0" xmlns="http://www.w3.org/2000/svg"
 width="2900.000000pt" height="2900.000000pt" viewBox="0 0 2900.000000 2900.000000"
 preserveAspectRatio="xMidYMid meet">
<metadata>
Created by potrace 1.16, written by Peter Selinger 2001-2019
</metadata>
<g transform="translate(0.000000,2900.000000) scale(0.100000,-0.100000)"
fill="#FFAC11" stroke="none">
<path d="M15995 28573 c-481 -16 -1064 -86 -1450 -174 -656 -149 -1193 -331
-1735 -586 -58 -28 -127 -61 -155 -73 -72 -34 -374 -197 -501 -270 -826 -477
-1607 -1148 -2225 -1910 -347 -428 -729 -1030 -949 -1496 -157 -331 -247 -546
-347 -824 -166 -465 -299 -1002 -372 -1500 -67 -450 -75 -580 -75 -1140 0
-440 2 -520 22 -714 78 -770 236 -1432 509 -2125 122 -309 300 -687 444 -937
34 -60 79 -138 99 -174 47 -82 208 -334 268 -420 25 -36 59 -85 76 -110 16
-25 32 -47 35 -50 4 -3 60 -77 126 -165 66 -87 149 -193 183 -235 35 -41 73
-86 85 -100 237 -285 696 -738 992 -979 125 -102 492 -375 600 -447 122 -82
325 -209 447 -280 37 -21 68 -42 68 -45 0 -4 -21 -24 -47 -45 -192 -153 -353
-294 -475 -412 l-86 -85 -28 44 c-252 404 -566 736 -938 994 -659 457 -1548
709 -2406 681 -107 -3 -211 -10 -231 -16 -107 -30 -144 -121 -104 -255 9 -27
49 -176 91 -330 41 -154 77 -287 80 -296 4 -14 -22 -17 -238 -22 -228 -6 -467
-29 -595 -57 -73 -17 -119 -53 -138 -110 -21 -62 -17 -75 73 -260 149 -304
298 -705 577 -1550 164 -495 243 -751 231 -746 -185 85 -290 109 -466 110
-211 0 -405 -50 -630 -165 -145 -74 -219 -122 -344 -224 -162 -132 -139 -121
-189 -92 -113 65 -301 123 -540 164 -49 8 -49 8 -69 68 -93 280 -318 564 -531
672 -215 108 -719 183 -1232 183 -80 0 -145 3 -145 8 0 4 46 75 102 157 55 83
142 211 192 285 110 162 218 350 286 494 272 581 259 1199 -39 1796 -199 401
-472 646 -866 779 -151 50 -247 72 -530 116 -249 40 -359 73 -415 128 -155
152 -189 386 -99 689 33 111 35 132 14 181 -28 67 -111 107 -183 88 -85 -23
-271 -148 -398 -267 -148 -138 -275 -349 -331 -550 -26 -92 -28 -111 -27 -284
0 -171 2 -192 27 -273 42 -135 96 -230 196 -339 109 -120 350 -252 636 -351
171 -59 182 -63 290 -113 93 -42 119 -67 112 -108 -14 -84 -96 -245 -332 -651
-362 -623 -474 -856 -548 -1135 -26 -101 -30 -132 -30 -250 0 -114 3 -145 22
-200 40 -116 80 -164 254 -310 37 -30 67 -60 67 -65 0 -6 -39 -23 -87 -38
-212 -66 -464 -224 -614 -385 -172 -183 -300 -439 -327 -656 -7 -60 -2 -246
17 -621 6 -115 18 -345 26 -510 9 -165 20 -379 25 -475 34 -624 43 -776 65
-1135 38 -603 82 -1155 106 -1305 15 -96 64 -235 111 -315 51 -86 186 -223
285 -288 87 -58 231 -126 330 -158 85 -27 3 -30 1073 41 85 6 396 26 690 45
775 51 815 54 920 66 179 21 320 76 480 188 141 99 316 303 412 481 22 40 38
52 145 110 173 94 349 218 516 363 l55 48 104 -10 c340 -33 688 -14 931 51 79
21 99 20 78 -6 -6 -7 -37 -65 -67 -127 -200 -405 -306 -915 -342 -1644 -9
-177 2 -827 17 -1005 21 -248 51 -554 61 -615 6 -33 22 -136 36 -230 69 -463
178 -911 294 -1216 141 -369 332 -646 600 -869 275 -228 668 -389 1100 -449
321 -46 406 -52 519 -41 168 17 475 83 826 177 291 78 337 91 430 118 50 15
160 47 245 72 285 83 866 262 950 293 14 5 126 41 250 80 124 40 365 118 535
175 l310 103 251 6 c572 14 1049 58 1649 151 334 53 804 146 1113 221 56 14
68 14 95 1 73 -34 231 -98 354 -143 l132 -49 21 -70 c51 -173 192 -592 239
-710 208 -520 498 -858 895 -1045 197 -94 401 -138 666 -146 154 -5 211 -3
345 15 508 66 1068 307 1540 663 141 105 135 101 366 294 276 229 535 413
1069 756 30 19 80 50 110 67 30 18 146 87 257 154 112 67 285 171 385 231 558
332 915 558 1107 698 351 256 648 615 876 1062 l51 99 199 52 c1009 263 1727
613 2166 1059 194 196 350 479 453 819 83 273 116 501 123 834 6 267 -3 416
-38 644 -11 74 -23 152 -25 174 l-5 40 92 59 c172 112 298 225 362 327 58 92
71 180 64 439 -13 451 -114 1081 -333 2075 -107 489 -294 1262 -316 1311 -8
17 -424 411 -612 579 -35 31 -381 354 -431 402 -6 6 -44 141 -83 300 -341
1380 -731 2256 -1112 2496 -292 184 -757 291 -1419 327 -204 11 -743 12 -919
2 -62 -4 -112 -3 -112 2 0 5 28 52 63 105 35 53 81 125 102 161 21 36 48 81
60 100 69 110 284 522 368 705 77 168 185 433 242 594 l34 95 98 37 c261 101
470 243 698 474 66 67 147 143 180 170 376 299 633 777 735 1365 33 194 43
359 37 624 -7 275 -29 469 -77 671 -85 362 -212 684 -378 957 -92 153 -184
275 -317 423 -59 66 -115 131 -123 145 -9 14 -55 70 -102 125 -254 298 -530
511 -852 658 l-105 49 -69 146 c-278 596 -646 1179 -1069 1697 -328 401 -734
802 -1155 1140 -244 196 -617 454 -880 610 -105 62 -495 275 -503 275 -3 0
-74 34 -160 75 -86 41 -159 75 -162 75 -2 0 -33 13 -69 29 -130 60 -438 178
-666 255 -485 164 -1055 290 -1625 361 -141 17 -419 36 -655 45 -262 9 -308
10 -495 3z m895 -457 c752 -75 1365 -215 2023 -463 283 -106 450 -179 707
-307 954 -477 1750 -1110 2424 -1931 258 -312 543 -734 753 -1110 52 -92 163
-309 163 -318 0 -2 -73 -7 -162 -10 -339 -13 -635 -110 -924 -303 -53 -35 -99
-64 -102 -63 -4 0 -50 71 -104 157 -370 603 -890 1211 -1443 1687 -315 271
-709 559 -1095 800 -230 144 -635 358 -910 482 -296 134 -712 292 -980 373
-58 18 -139 42 -180 55 -198 61 -643 162 -920 209 -643 111 -1351 139 -2004
81 -384 -34 -881 -119 -1316 -226 -76 -19 -349 -93 -389 -106 -47 -15 203 122
394 217 884 436 1787 691 2740 774 99 9 198 18 220 20 105 10 958 -4 1105 -18z
m-1460 -1086 c726 -74 1265 -189 1881 -399 146 -50 409 -148 470 -175 19 -9
79 -34 134 -57 404 -168 997 -499 1385 -772 36 -26 73 -52 83 -59 25 -17 282
-212 326 -246 365 -286 823 -743 1127 -1123 181 -227 396 -536 538 -775 63
-107 77 -146 56 -159 -17 -11 -146 -190 -203 -281 -30 -50 -76 -130 -100 -178
l-45 -87 -82 158 c-180 344 -385 659 -619 952 -530 662 -1132 1187 -1869 1630
-904 544 -1957 892 -3012 996 -1414 139 -3017 -215 -4190 -926 -154 -93 -481
-317 -510 -349 -3 -3 -48 -40 -101 -83 -319 -254 -637 -582 -888 -917 -64 -85
-118 -157 -121 -160 -10 -9 -147 -215 -190 -285 -169 -277 -326 -574 -445
-845 -65 -149 -224 -564 -239 -624 -4 -15 -9 -26 -12 -24 -5 6 24 133 73 313
326 1210 976 2351 1843 3239 104 107 192 187 238 217 41 27 75 49 77 49 1 0
61 32 131 71 549 304 1164 537 1844 698 494 117 977 190 1425 215 126 7 895
-3 995 -14z m-255 -1570 c125 -14 397 -57 450 -72 142 -38 248 -73 301 -99 62
-29 92 -53 77 -62 -4 -2 -64 -12 -133 -21 -190 -26 -419 -62 -565 -90 -133
-26 -534 -121 -640 -151 -27 -8 -106 -31 -175 -51 -231 -66 -828 -275 -864
-303 -6 -4 -48 -23 -94 -41 -45 -18 -85 -36 -88 -41 -3 -5 -11 -9 -18 -9 -17
0 -312 -142 -441 -212 -214 -117 -457 -263 -583 -352 -161 -113 -237 -167
-242 -174 -3 -4 -30 -26 -60 -49 -30 -23 -69 -54 -87 -70 -18 -15 -46 -39 -62
-51 -51 -40 -112 -93 -195 -172 -480 -455 -739 -829 -943 -1365 -110 -288
-227 -682 -274 -920 -39 -199 -50 -271 -64 -434 -52 -581 -31 -1125 65 -1706
84 -507 177 -912 295 -1285 56 -178 163 -456 222 -578 25 -52 42 -96 38 -100
-3 -4 -9 -2 -13 3 -4 6 -27 23 -52 39 -39 26 -249 182 -305 227 -271 221 -546
513 -705 749 -24 36 -49 71 -56 78 -7 6 -16 21 -19 32 -3 11 -11 20 -16 20 -5
0 -9 5 -9 12 0 6 -20 43 -43 82 -210 342 -384 849 -452 1316 -40 269 -47 396
-41 715 9 505 64 1011 151 1390 62 268 122 488 191 695 28 83 90 238 130 328
13 29 24 54 24 56 0 11 130 272 172 345 26 46 48 85 48 87 0 7 134 221 168
267 21 29 44 62 52 73 23 34 136 177 157 199 10 11 34 40 53 65 65 82 294 304
415 401 323 259 594 429 1000 628 219 107 251 122 400 181 470 188 903 303
1460 389 78 12 355 39 455 45 136 7 820 -3 915 -14z m7814 -1920 c52 -6 130
-19 175 -30 83 -20 211 -62 222 -73 3 -3 -11 -9 -32 -12 -480 -79 -881 -404
-1135 -920 -204 -414 -293 -880 -269 -1393 22 -452 101 -810 266 -1210 181
-438 494 -844 829 -1075 149 -102 301 -176 460 -222 74 -22 78 -24 53 -33 -60
-24 -191 -44 -313 -49 -583 -24 -1167 350 -1564 1001 -191 313 -320 644 -405
1039 -167 774 -48 1606 312 2192 79 129 154 226 261 338 215 224 468 368 746
426 153 32 245 36 394 21z m682 -545 c120 -13 285 -80 424 -172 336 -223 602
-597 768 -1083 72 -209 117 -401 141 -605 64 -526 -11 -1042 -209 -1450 -83
-171 -164 -286 -289 -410 -131 -129 -223 -188 -375 -241 -238 -83 -509 -45
-765 106 -497 293 -860 947 -968 1740 -20 147 -17 567 5 715 110 747 457 1260
937 1386 96 25 190 29 331 14z m-4716 -100 c334 -91 601 -316 773 -650 48 -94
104 -259 123 -365 20 -112 18 -375 -5 -478 -98 -455 -411 -768 -824 -823 -101
-14 -251 -7 -337 15 -160 42 -336 130 -440 222 -16 14 -41 36 -55 48 -178 155
-352 466 -399 716 -53 280 -23 549 87 780 137 285 362 469 662 541 94 23 322
20 415 -6z m-10158 -687 c-3 -8 -6 -5 -6 6 -1 11 2 17 5 13 3 -3 4 -12 1 -19z
m10753 -2374 c148 -59 257 -182 307 -343 53 -173 25 -331 -83 -463 -51 -64
-194 -128 -284 -128 -72 0 -186 41 -257 92 -152 109 -243 323 -215 507 27 170
144 314 287 352 49 13 195 3 245 -17z m2199 -1095 c69 -69 162 -154 206 -189
44 -35 79 -68 79 -74 -4 -41 -86 -323 -140 -485 -370 -1105 -1005 -2059 -1901
-2859 -175 -157 -488 -400 -500 -388 -3 3 -11 27 -18 53 -7 27 -28 100 -45
163 -56 199 -92 334 -97 355 -3 15 17 36 84 90 231 185 566 516 789 780 581
687 995 1478 1222 2340 35 132 102 419 102 442 0 4 21 -17 47 -47 25 -30 103
-112 172 -181z m804 -533 c196 -74 396 -115 570 -116 73 0 87 -3 87 -16 0 -19
-65 -178 -157 -384 -303 -676 -761 -1375 -1266 -1935 -258 -285 -644 -647
-947 -886 -139 -110 -433 -323 -545 -394 -33 -21 -72 -46 -87 -56 -95 -66
-521 -309 -540 -309 -3 0 -16 39 -28 87 l-24 86 24 16 c13 9 91 66 173 128
1074 806 1881 1853 2362 3063 92 230 185 508 231 688 10 39 21 72 25 72 3 0
58 -20 122 -44z m-20530 -2063 c10 -183 69 -339 182 -476 128 -155 269 -219
607 -272 446 -70 616 -122 804 -247 338 -226 594 -783 594 -1292 0 -248 -49
-458 -167 -716 -67 -145 -161 -298 -399 -648 -278 -408 -320 -510 -331 -792
-8 -237 26 -486 97 -696 17 -48 30 -91 30 -96 0 -9 -371 -11 -448 -2 -43 6
-53 11 -56 28 -60 305 -128 520 -226 721 -128 263 -256 430 -452 587 -104 83
-123 120 -123 238 1 88 23 185 77 329 55 148 199 438 308 621 302 510 451 784
497 911 37 105 43 224 13 302 -62 164 -176 240 -569 379 -142 50 -309 124
-400 177 -196 115 -291 296 -278 531 7 120 29 204 78 305 39 80 132 215 148
215 4 0 11 -48 14 -107z m21912 -73 c289 -20 654 -73 805 -116 l55 -16 -125
-45 c-69 -24 -188 -67 -265 -95 -77 -28 -187 -67 -245 -88 -179 -64 -640 -245
-705 -277 -112 -56 -148 -128 -110 -219 23 -55 64 -87 128 -98 32 -6 64 4 215
65 275 112 312 126 557 216 326 120 934 333 950 333 18 0 102 -107 177 -226
170 -271 391 -834 568 -1447 40 -141 133 -492 155 -587 10 -41 23 -100 31
-130 7 -30 12 -55 11 -56 -9 -7 -103 -51 -212 -99 -71 -31 -159 -70 -195 -85
-123 -54 -371 -160 -376 -160 -2 0 -22 39 -44 86 -127 275 -319 543 -570 794
-302 302 -675 562 -1126 785 -444 219 -893 383 -1406 514 l-187 48 62 61 c153
148 377 384 492 517 48 55 251 307 262 324 1 2 84 7 185 11 221 10 693 4 913
-10z m-6323 -304 c121 -59 207 -106 198 -109 -8 -3 -103 -26 -210 -52 -363
-87 -699 -195 -1144 -370 -66 -25 -139 -55 -162 -66 -24 -10 -46 -19 -49 -19
-3 0 -83 -34 -178 -76 -541 -238 -1155 -548 -1656 -836 -46 -26 -86 -48 -88
-48 -2 0 -32 -17 -66 -38 -52 -32 -249 -150 -379 -226 -48 -28 -412 -253 -493
-304 -367 -234 -1067 -707 -1085 -734 -6 -7 -47 -11 -373 -38 -186 -15 -169
-19 -200 51 -15 33 -27 66 -27 73 0 18 195 205 365 352 407 350 1034 782 1535
1057 805 442 1524 761 2407 1068 352 122 1058 335 1368 412 11 2 21 5 22 6 1
0 97 -46 215 -103z m1350 -344 c5 -5 20 -49 33 -98 31 -117 121 -445 139 -509
17 -57 107 -385 161 -585 20 -74 56 -205 80 -290 90 -323 127 -462 123 -466
-3 -2 -66 5 -141 16 -643 93 -1175 49 -1436 -120 -179 -116 -262 -259 -262
-455 -1 -163 44 -277 150 -385 134 -137 314 -225 607 -299 83 -21 295 -57 374
-64 27 -2 44 -8 43 -15 -2 -6 -19 -37 -39 -68 -57 -89 -138 -267 -183 -400
-111 -334 -120 -694 -25 -1069 18 -69 90 -276 111 -319 17 -33 17 -33 -72 2
-27 11 -126 48 -220 82 -176 65 -197 76 -180 88 6 4 18 23 28 42 10 19 40 75
67 125 26 49 61 115 77 145 15 30 30 57 33 60 8 8 40 80 36 80 -2 0 -35 -14
-73 -31 -37 -17 -91 -40 -120 -50 -50 -19 -54 -24 -101 -112 -165 -308 -164
-307 -158 -342 7 -34 13 -39 126 -88 65 -29 382 -147 394 -147 6 0 49 16 95
35 45 19 87 35 92 35 5 0 27 -37 50 -82 191 -379 503 -683 840 -816 194 -77
423 -101 604 -63 116 25 237 70 314 118 29 19 57 31 61 26 6 -6 198 -775 216
-863 3 -14 7 -32 10 -41 3 -13 -10 -18 -68 -28 -468 -76 -997 -194 -1528 -340
-58 -16 -141 -38 -185 -50 -116 -32 -598 -184 -750 -237 -306 -107 -801 -297
-890 -341 -16 -8 -57 -25 -90 -38 -33 -12 -85 -34 -115 -48 -30 -13 -77 -35
-105 -47 -223 -99 -653 -314 -895 -447 -168 -93 -196 -109 -455 -266 -196
-119 -621 -412 -798 -550 -48 -38 -90 -67 -93 -65 -5 6 -64 170 -139 388 -29
85 -108 313 -175 505 -67 193 -144 413 -170 490 -45 130 -79 227 -196 560 -26
72 -70 200 -99 285 -29 85 -67 193 -83 240 -17 47 -72 204 -122 350 -95 275
-178 513 -307 880 -41 118 -97 278 -123 355 -27 77 -83 239 -125 360 -43 121
-109 310 -147 420 -135 391 -177 512 -248 715 -40 113 -94 268 -120 345 -41
120 -133 382 -228 654 -18 51 -23 76 -15 78 7 3 33 20 58 40 89 68 729 498
883 593 40 25 120 75 178 113 58 37 140 88 182 113 42 25 122 73 177 106 301
183 730 426 1120 635 133 72 626 317 745 371 336 152 794 345 910 382 14 5 77
27 140 50 553 198 1090 324 1540 359 134 11 469 6 482 -7z m2884 -551 c391
-84 766 -197 1139 -344 895 -352 1533 -822 1899 -1397 76 -121 172 -325 220
-470 84 -255 116 -473 116 -796 0 -541 -75 -925 -247 -1267 -114 -229 -255
-396 -463 -550 -77 -57 -340 -180 -355 -166 -2 3 5 38 15 79 113 436 140 909
74 1329 -74 476 -283 934 -592 1301 -134 159 -373 374 -557 502 -143 99 -97
93 -504 69 -805 -48 -1116 -65 -1453 -83 l-236 -12 -89 41 c-187 87 -583 215
-832 271 l-124 28 -37 132 c-26 93 -34 135 -26 140 6 5 56 33 111 62 104 55
324 180 391 223 22 13 93 52 159 87 66 35 131 71 145 80 14 9 57 34 95 55 77
42 386 235 451 281 23 16 79 56 125 88 117 83 249 183 349 265 54 44 95 70
111 70 14 1 66 -8 115 -18z m-13176 -216 c466 -49 948 -182 1323 -367 489
-241 916 -623 1204 -1078 67 -106 197 -343 208 -377 11 -39 -15 -27 -131 57
-106 78 -449 309 -536 361 -708 429 -1492 705 -2259 794 -73 9 -134 17 -135
18 -8 8 -164 584 -164 604 0 15 16 15 172 9 95 -3 238 -13 318 -21z m3736
-445 c54 -17 117 -37 139 -44 43 -14 46 -24 11 -45 -20 -12 -33 -8 -152 59
-71 40 -122 70 -113 67 8 -3 60 -19 115 -37z m-4011 -484 c535 -66 999 -191
1487 -400 232 -99 549 -263 723 -374 179 -114 360 -237 464 -315 l113 -84 148
-439 c80 -242 163 -486 184 -544 21 -58 62 -175 91 -260 89 -257 177 -507 305
-865 67 -187 136 -383 155 -435 90 -256 197 -556 460 -1285 75 -209 159 -441
185 -515 27 -74 67 -187 90 -250 23 -63 63 -176 90 -250 27 -74 114 -317 195
-540 81 -223 176 -488 212 -590 36 -102 96 -268 133 -370 38 -102 67 -186 65
-188 -2 -2 -50 15 -107 38 -312 126 -698 250 -1078 346 -108 28 -497 107 -610
124 -41 6 -95 16 -120 21 -38 7 -258 38 -397 55 -40 5 -42 7 -84 87 -56 109
-133 235 -275 452 -103 159 -260 305 -457 427 -91 57 -341 184 -427 218 -30
12 -77 31 -105 42 -137 54 -326 111 -491 148 l-101 23 -43 151 c-23 83 -72
252 -107 376 -36 124 -78 272 -94 330 -17 58 -34 119 -40 135 -5 17 -39 134
-75 260 -64 224 -150 518 -199 680 -13 44 -40 136 -60 205 -20 69 -54 184 -76
255 -22 72 -48 159 -59 195 -150 506 -458 1478 -603 1905 -79 230 -103 301
-202 575 -19 52 -41 115 -50 140 -8 25 -20 54 -25 65 -5 11 -21 49 -34 85 -14
36 -50 126 -81 200 -77 185 -76 167 -13 174 29 3 69 8 88 10 91 10 702 -3 825
-18z m10675 -527 c132 -12 345 -43 520 -75 1167 -213 1858 -612 2183 -1260
160 -319 229 -746 186 -1144 -13 -123 0 -173 59 -218 30 -23 45 -27 97 -27 52
0 67 4 97 27 51 39 65 88 78 267 25 327 -17 678 -116 969 -130 387 -360 709
-692 974 -40 32 -70 58 -65 58 14 0 1037 58 1254 71 l206 13 68 -49 c373 -266
676 -639 835 -1031 177 -433 226 -950 139 -1459 -35 -205 -116 -502 -142 -523
-22 -18 -314 -111 -439 -141 -390 -92 -579 -114 -993 -115 -404 -1 -607 18
-968 90 -208 41 -520 125 -540 144 -5 4 16 83 47 176 30 92 54 169 53 170 -1
1 -74 -57 -162 -128 -88 -72 -182 -148 -210 -169 -27 -22 -81 -66 -118 -98
-142 -123 -313 -174 -504 -151 -201 25 -386 119 -560 284 -145 137 -242 272
-347 484 -174 349 -232 725 -165 1065 56 281 176 523 371 745 28 31 65 80 83
107 19 28 71 92 116 144 l82 94 -54 -7 c-124 -15 -362 -18 -519 -7 -503 38
-865 166 -952 335 -29 58 -22 161 16 211 75 98 264 165 525 185 117 9 369 4
531 -11z m7452 -396 c117 -109 248 -232 292 -273 l78 -76 -103 -41 c-126 -50
-434 -171 -659 -258 -91 -35 -257 -100 -371 -145 -113 -44 -208 -80 -212 -80
-4 0 -7 39 -7 88 0 121 -25 333 -57 485 -14 70 -24 128 -22 130 5 4 278 121
459 197 94 40 300 134 335 153 17 9 35 16 42 17 6 0 107 -89 225 -197z
m-14220 -458 c39 -110 89 -256 113 -325 24 -69 76 -217 115 -330 40 -113 91
-261 115 -330 23 -69 77 -224 120 -345 42 -121 97 -278 121 -350 25 -71 56
-159 69 -195 26 -72 125 -354 275 -790 122 -354 352 -1013 420 -1205 38 -108
153 -438 280 -810 27 -77 81 -232 120 -345 144 -411 223 -640 295 -850 41
-118 97 -280 126 -360 28 -80 54 -159 56 -176 5 -30 4 -30 -44 -32 -26 -1
-113 -7 -193 -12 -80 -6 -197 -15 -260 -19 -63 -5 -118 -7 -121 -5 -7 4 -14
22 -84 219 -26 72 -75 207 -110 300 -100 270 -135 364 -167 455 -27 78 -112
314 -398 1105 -117 323 -234 647 -390 1085 -54 151 -117 327 -140 390 -23 63
-49 135 -57 160 -9 25 -42 119 -75 210 -33 91 -89 246 -123 345 -35 99 -80
225 -100 280 -20 55 -45 125 -55 155 -30 87 -115 327 -150 420 -17 47 -44 123
-60 170 -15 47 -67 195 -115 330 -82 229 -214 611 -307 883 -22 65 -38 120
-36 122 1 1 100 10 218 19 118 10 262 21 320 25 167 14 142 35 222 -194z
m14905 -177 c24 -23 43 -47 43 -54 0 -6 33 -148 74 -315 127 -521 142 -586
255 -1109 190 -886 310 -1701 285 -1938 -10 -100 -28 -135 -107 -207 -175
-163 -606 -387 -1207 -628 -260 -104 -586 -220 -603 -214 -6 2 -45 138 -88
303 -144 559 -205 798 -295 1138 -25 98 -43 129 -95 164 -69 48 -191 7 -225
-74 -20 -48 -18 -75 16 -204 16 -63 62 -239 101 -390 39 -151 90 -349 114
-440 23 -91 62 -238 85 -328 24 -89 40 -165 38 -168 -7 -6 -450 85 -461 95 -4
5 -19 73 -32 152 -13 79 -31 180 -39 224 -8 44 -22 116 -30 160 -34 189 -159
718 -227 960 -56 198 -119 414 -130 441 -5 15 -6 30 -2 34 4 3 44 33 87 66
332 249 584 676 696 1176 32 145 70 389 70 453 0 22 3 57 6 77 6 36 7 37 128
84 66 26 240 94 386 151 258 102 299 118 465 182 44 17 204 80 355 140 151 60
279 110 285 110 5 1 29 -18 52 -41z m-22863 -443 c316 -28 536 -70 649 -127
109 -54 233 -200 321 -375 58 -116 85 -219 91 -348 3 -55 7 -941 9 -1968 l5
-1869 -40 -71 c-143 -253 -366 -441 -566 -476 -69 -13 -339 -34 -833 -66 -124
-8 -292 -19 -375 -25 -82 -6 -330 -21 -550 -35 -220 -14 -496 -32 -614 -41
-242 -18 -239 -19 -386 51 -98 47 -135 72 -209 143 -107 103 -144 197 -170
432 -49 437 -139 1903 -212 3442 l-18 366 22 87 c40 158 150 347 261 448 70
64 191 146 276 187 111 54 281 112 334 113 l45 2 37 -75 36 -75 -121 -40
c-356 -119 -523 -258 -519 -432 5 -221 228 -347 738 -419 154 -21 749 -31 966
-15 883 65 1481 253 1604 506 55 112 28 237 -72 325 -169 149 -532 225 -1135
237 l-288 6 0 51 c0 58 7 72 35 78 43 10 507 -2 679 -17z m3326 -625 c140 -54
271 -159 359 -289 81 -119 119 -213 215 -533 88 -293 114 -381 202 -680 61
-211 102 -350 149 -513 26 -88 64 -220 85 -293 l37 -132 -30 -48 c-48 -76
-151 -194 -255 -293 -397 -376 -860 -603 -1342 -659 -107 -12 -406 -17 -417
-7 -3 4 5 20 18 35 123 135 309 462 385 675 104 293 138 505 133 835 l-3 204
24 27 c134 145 209 273 222 378 l3 28 -167 3 c-156 2 -168 1 -168 -15 0 -30
-102 -154 -181 -221 -161 -137 -302 -214 -414 -227 -163 -18 -314 123 -397
370 -27 80 -30 99 -26 175 9 155 99 367 236 560 37 52 123 151 192 220 184
185 392 317 610 389 138 45 171 50 315 47 119 -3 137 -6 215 -36z m-1785 -307
c84 -21 215 -73 215 -84 0 -6 -20 -38 -44 -72 -59 -84 -132 -214 -171 -304
-18 -41 -35 -77 -38 -79 -3 -3 -31 0 -61 7 l-56 12 0 275 0 274 48 -7 c26 -3
74 -13 107 -22z m-108 -969 c35 -315 249 -636 486 -730 l49 -19 -5 -51 c-7
-70 -60 -222 -104 -295 -76 -131 -212 -277 -358 -386 l-100 -74 -6 458 c-3
252 -7 628 -8 836 -1 353 0 378 16 375 14 -3 20 -23 30 -114z m18622 -276 c28
-86 118 -407 126 -449 l6 -34 -87 -39 c-566 -250 -1405 -465 -2209 -566 -320
-40 -900 -88 -913 -75 -4 4 -161 629 -162 646 0 3 123 9 273 13 735 18 1282
84 1657 200 63 20 187 54 275 77 197 50 293 79 460 139 72 26 166 53 210 59
80 11 215 46 290 74 22 9 43 16 47 16 3 1 16 -27 27 -61z m-3287 -197 c84 -22
164 -41 178 -44 14 -2 -52 -5 -147 -6 l-172 -1 -10 38 c-12 41 -13 52 -6 52 2
0 73 -18 157 -39z m-14225 -308 c-18 -322 -111 -621 -290 -928 -103 -177 -314
-423 -505 -589 -87 -75 -329 -256 -344 -256 -5 0 -8 139 -8 310 l0 309 73 42
c168 98 300 201 447 349 204 206 328 438 365 685 8 54 16 99 17 100 2 1 35 12
73 25 39 12 90 33 115 46 25 13 49 23 54 24 5 0 6 -49 3 -117z m17752 -405
c136 -623 207 -1070 247 -1558 20 -252 15 -805 -10 -1021 -99 -864 -365 -1570
-787 -2089 -205 -252 -384 -399 -795 -654 -49 -30 -120 -74 -157 -98 -38 -24
-243 -148 -455 -276 l-387 -233 -2 118 c-4 224 -23 579 -38 711 -83 745 -274
1302 -628 1832 -180 270 -362 485 -657 780 -325 326 -606 517 -1041 709 -74
32 -335 117 -436 141 l-93 22 23 32 c58 81 182 222 293 332 195 193 360 318
534 404 183 91 305 120 502 120 273 0 546 -72 872 -231 177 -86 291 -155 509
-310 41 -29 57 -34 103 -33 61 0 94 19 132 74 30 44 30 112 -1 162 -25 41
-172 154 -324 248 -94 58 -366 198 -448 231 l-40 16 80 7 c688 61 1150 129
1650 241 289 65 652 168 844 239 284 105 353 132 401 157 84 43 83 43 109 -73z
m-15776 -488 c15 -53 27 -98 27 -100 0 -3 -61 -6 -135 -7 -74 -2 -135 -2 -135
0 0 10 206 214 211 209 3 -4 18 -50 32 -102z m11052 -178 c-6 -5 -53 -41 -107
-80 -104 -78 -256 -209 -328 -282 -94 -97 -177 -187 -229 -247 -29 -35 -60
-63 -69 -63 -8 0 -63 -11 -121 -25 -58 -13 -176 -40 -261 -60 -85 -20 -209
-49 -275 -65 -66 -15 -154 -36 -195 -46 -41 -9 -183 -44 -315 -76 -402 -99
-1224 -262 -1241 -245 -3 2 -7 20 -10 39 l-6 34 179 86 c98 47 225 107 283
133 58 26 123 55 145 65 299 138 899 364 1305 493 415 132 631 193 1023 292
231 58 236 59 222 47z m7453 -144 c30 -215 36 -300 36 -528 1 -337 -34 -580
-123 -855 -120 -373 -263 -588 -534 -806 -208 -168 -549 -363 -835 -479 -53
-21 -131 -53 -172 -70 -169 -70 -781 -262 -795 -249 -2 3 12 54 31 114 170
536 248 1068 248 1695 -1 293 -6 389 -41 738 -3 34 -2 62 2 62 4 0 129 -24
279 -54 366 -73 362 -73 449 -45 283 88 582 194 872 309 103 40 527 231 540
242 23 20 32 4 43 -74z m-18517 -138 c339 -172 640 -502 862 -945 81 -162 141
-313 202 -504 69 -218 148 -611 175 -871 6 -58 13 -112 15 -120 7 -25 53 -646
71 -960 22 -375 25 -1243 6 -1465 -39 -456 -104 -765 -210 -998 -35 -76 -122
-213 -174 -272 -34 -38 -38 -39 -106 -43 -60 -4 -360 23 -370 33 -2 1 22 49
54 105 31 57 85 166 121 244 169 370 249 637 280 941 15 143 15 202 5 555 -22
689 -85 1391 -177 1968 -14 84 -25 176 -25 205 0 28 -9 74 -19 102 -11 27 -36
127 -56 220 -77 365 -175 672 -273 855 -19 36 -43 82 -54 102 -31 64 -177 298
-241 388 -98 138 -174 228 -299 352 -65 65 -118 120 -118 122 0 6 76 12 188
14 74 2 89 -1 143 -28z m750 -119 c343 -116 680 -302 845 -466 47 -47 90 -107
204 -290 24 -38 53 -86 65 -105 54 -85 150 -268 182 -346 7 -16 23 -54 36 -84
115 -261 196 -639 240 -1123 15 -158 22 -177 81 -221 20 -16 42 -21 86 -21 50
0 63 4 97 31 65 53 70 80 49 316 -28 320 -86 639 -156 863 -18 55 -34 108 -37
118 -7 21 -13 22 247 -19 302 -47 738 -144 1015 -225 256 -76 622 -204 790
-277 146 -63 169 -74 288 -133 140 -70 119 -68 489 -39 139 11 351 27 472 35
247 18 250 19 341 104 123 115 761 572 892 640 12 6 91 18 175 26 498 49 896
104 1290 179 40 8 75 12 77 10 2 -2 -24 -32 -57 -66 -124 -128 -254 -314 -363
-523 -175 -335 -289 -748 -341 -1230 -17 -161 -17 -817 0 -985 31 -302 76
-593 133 -858 11 -52 19 -96 17 -98 -6 -5 -172 64 -349 146 -560 259 -1035
576 -1384 925 -191 191 -326 362 -454 577 -60 100 -94 129 -160 136 -65 6
-113 -17 -148 -69 -39 -60 -37 -116 6 -195 31 -55 126 -206 144 -229 4 -5 38
-50 75 -99 243 -324 563 -618 962 -883 91 -60 222 -143 292 -184 70 -41 128
-77 128 -80 0 -7 -353 -77 -570 -114 -696 -116 -1228 -168 -1845 -180 l-250
-4 -455 -151 c-788 -261 -1743 -555 -2235 -687 -248 -66 -269 -72 -273 -68 -2
1 6 21 17 43 60 118 127 329 170 537 113 549 124 1397 35 2615 -36 501 -88
897 -155 1190 -140 614 -405 1161 -739 1523 -34 37 -60 67 -58 67 2 0 42 -13
89 -29z m-1413 -38 c143 -82 289 -224 445 -431 108 -145 106 -140 55 -146 -24
-3 -92 -8 -153 -11 -60 -3 -195 -12 -300 -20 -104 -8 -262 -19 -350 -25 -88
-6 -181 -13 -207 -15 -35 -4 -48 -2 -48 7 0 24 97 236 140 310 79 132 186 253
289 326 55 39 69 39 129 5z m10597 -833 c258 -68 511 -180 720 -318 118 -79
271 -201 337 -269 l47 -48 -247 3 c-531 8 -1460 -42 -2143 -114 -81 -9 -156
-14 -168 -12 -20 3 -20 6 16 58 177 263 382 450 630 573 134 67 204 93 363
134 162 42 265 40 445 -7z m-9848 -92 c57 -97 149 -355 203 -568 32 -129 70
-298 70 -316 0 -12 -90 -26 -335 -50 -320 -31 -607 -45 -1024 -51 l-434 -6 7
139 c10 201 59 578 97 745 l10 47 102 6 c245 16 533 36 662 47 306 24 483 36
552 38 70 1 71 1 90 -31z m10995 -101 c363 -171 630 -376 961 -736 80 -86 169
-185 199 -221 88 -105 251 -323 283 -378 6 -9 36 -58 67 -108 182 -294 334
-679 413 -1055 82 -384 127 -929 110 -1332 l-7 -172 -62 -38 c-255 -156 -633
-410 -843 -565 -140 -104 -144 -107 -138 -90 6 18 42 269 59 423 61 526 79
1019 56 1500 -50 1022 -283 1778 -718 2328 -108 137 -292 326 -407 417 -98 78
-101 80 -92 80 4 0 57 -24 119 -53z m-117 -767 c116 -5 243 -12 282 -16 l72
-7 40 -61 c47 -72 159 -295 200 -398 45 -113 118 -337 139 -426 l19 -81 -51
-5 c-242 -27 -741 -60 -1741 -116 -230 -13 -705 -35 -1145 -55 -190 -8 -406
-17 -480 -21 -74 -3 -154 -7 -177 -9 -24 -2 -44 -1 -47 3 -6 12 21 270 43 406
28 168 70 343 121 500 32 99 46 129 63 136 77 31 1620 145 2077 153 322 6 386
6 585 -3z m-10521 -477 c58 -425 96 -747 96 -829 0 -39 -3 -44 -27 -50 -16 -3
-44 -10 -63 -15 -88 -21 -558 -78 -855 -104 -265 -22 -975 -61 -975 -52 0 1
-4 38 -10 82 -20 161 -41 486 -47 738 l-6 257 244 0 c288 0 684 14 964 35 212
16 603 53 620 60 37 14 41 6 59 -122z m11364 -1030 c34 -288 40 -368 48 -634
l7 -245 -134 -12 c-240 -21 -784 -51 -1394 -77 -192 -8 -453 -19 -580 -25
-126 -6 -482 -19 -790 -30 -308 -11 -614 -22 -681 -25 l-121 -6 -6 38 c-3 21
-15 99 -26 173 -28 188 -50 410 -56 564 -3 72 -8 161 -10 197 l-5 66 178 7
c317 12 708 30 1347 62 165 8 388 19 495 24 189 9 598 35 1060 65 193 13 321
23 480 38 19 2 64 5 101 5 l65 2 22 -187z m-11221 -366 c7 -100 15 -360 19
-578 7 -379 6 -396 -11 -403 -62 -23 -660 -46 -1218 -46 l-482 0 -29 103 c-56
199 -74 266 -100 388 -38 174 -54 253 -66 334 -6 39 -15 90 -20 115 -5 25 -11
59 -14 76 l-5 31 172 7 c525 21 1100 70 1507 129 124 18 227 31 230 29 3 -2
10 -85 17 -185z m11263 -924 c0 -88 -24 -420 -40 -563 -38 -340 -75 -586 -89
-595 -11 -6 -661 -43 -1251 -70 -179 -8 -413 -20 -520 -25 -332 -18 -1007 -51
-1175 -57 l-160 -6 -17 41 c-125 295 -266 751 -363 1168 -4 20 -1 21 198 27
1089 35 2867 115 3252 146 55 4 115 9 133 10 l32 1 0 -77z m-11325 -458 c-37
-142 -147 -404 -262 -625 -101 -195 -133 -250 -147 -250 -13 0 -94 25 -131 40
-11 4 -42 16 -70 25 -74 26 -273 124 -330 163 -142 98 -281 232 -377 362 -54
74 -178 283 -178 301 0 5 167 9 413 9 390 0 793 12 992 28 50 5 93 5 97 2 4
-3 1 -27 -7 -55z m11100 -1043 c-31 -28 -216 -158 -310 -219 -599 -385 -1305
-562 -1764 -442 -195 51 -385 146 -509 254 -50 44 -161 159 -180 187 -9 12
-22 27 -29 31 -7 4 -13 15 -13 22 0 8 -5 15 -11 15 -5 0 -8 4 -5 9 3 4 81 11
173 15 93 4 299 13 458 21 160 8 358 17 440 20 83 3 263 12 400 20 138 8 354
19 480 25 127 6 345 17 485 25 140 8 282 16 315 18 33 2 64 4 70 5 6 1 6 -1 0
-6z"/>
<path d="M3393 14133 c-51 -28 -73 -66 -84 -140 -28 -186 -87 -279 -382 -598
-108 -117 -227 -294 -266 -395 -99 -257 -91 -574 23 -924 42 -126 108 -271
139 -304 67 -72 170 -69 241 7 28 30 30 36 38 163 17 277 57 397 203 618 178
268 253 403 312 559 44 118 93 311 105 420 27 243 -50 506 -171 588 -42 28
-113 31 -158 6z m-61 -849 c-56 -156 -118 -275 -246 -469 -62 -93 -123 -189
-136 -212 -13 -24 -28 -43 -33 -43 -14 0 -1 172 18 245 28 106 109 240 216
357 19 21 74 82 124 137 49 55 91 98 93 97 1 -2 -15 -52 -36 -112z"/>
<path d="M15735 14124 c-126 -18 -409 -128 -463 -181 -7 -7 -26 -20 -42 -30
-17 -9 -30 -21 -30 -25 0 -4 -4 -8 -10 -8 -9 0 -133 -122 -174 -170 -79 -96
-190 -307 -200 -380 -1 -9 -4 -20 -7 -25 -6 -10 -16 -61 -38 -190 -13 -71 1
-287 23 -381 38 -157 147 -372 236 -464 8 -9 24 -28 35 -43 11 -15 28 -30 37
-33 26 -8 288 124 522 263 130 78 350 223 354 235 2 4 7 8 12 8 9 0 98 59 144
95 17 14 36 29 41 33 166 122 303 229 335 262 3 3 55 49 115 102 61 53 154
141 208 196 l99 99 -26 41 c-14 23 -26 44 -26 48 0 8 -113 162 -143 194 -41
45 -161 145 -217 182 -72 46 -220 117 -262 124 -18 4 -60 16 -93 27 -50 17
-89 21 -230 23 -93 1 -183 0 -200 -2z"/>
<path d="M16912 13156 c-53 -51 -122 -114 -152 -141 -30 -26 -66 -57 -80 -69
-59 -53 -294 -240 -405 -321 -106 -79 -422 -295 -430 -295 -2 0 -40 -22 -85
-50 -45 -27 -83 -50 -85 -50 -2 0 -43 -23 -92 -51 -48 -28 -130 -73 -182 -100
l-93 -48 48 -31 c51 -32 192 -90 219 -90 9 0 25 -5 35 -10 71 -38 308 -51 471
-25 168 26 407 127 497 210 15 14 30 25 35 25 4 0 42 35 84 78 168 170 254
323 315 560 25 97 35 323 18 402 -6 30 -12 65 -12 78 0 12 -2 22 -5 22 -2 0
-48 -42 -101 -94z"/>
<path d="M17175 12000 c-22 -10 -156 -68 -298 -128 -142 -61 -273 -122 -292
-136 -19 -15 -47 -47 -62 -73 -41 -70 -37 -140 14 -268 81 -202 183 -426 210
-462 35 -45 113 -83 174 -83 25 0 70 8 100 19 58 20 285 115 387 162 34 16 65
29 68 29 3 0 25 9 50 20 24 11 55 25 69 30 l25 9 -21 53 c-12 29 -26 65 -31
81 -6 15 -11 27 -13 27 -5 0 -296 -123 -463 -196 -157 -68 -183 -73 -211 -43
-11 13 -21 27 -21 32 0 5 -32 84 -71 176 -123 289 -119 278 -119 305 0 32 33
57 125 96 77 32 148 62 190 81 11 5 70 29 130 54 175 73 185 77 185 88 0 6
-12 41 -27 79 -31 74 -36 77 -98 48z"/>
<path d="M15986 11480 c-27 -5 -63 -14 -80 -21 -44 -17 -301 -127 -363 -155
-29 -13 -63 -26 -75 -29 -38 -10 -69 -42 -75 -78 -4 -28 10 -71 77 -228 45
-107 90 -213 101 -237 11 -24 33 -76 49 -115 31 -78 40 -98 85 -190 45 -93 72
-95 230 -21 32 15 154 67 275 116 142 59 219 122 271 224 27 54 33 79 37 148
5 104 -10 155 -105 353 -83 172 -249 263 -427 233z m160 -189 c23 -10 53 -32
68 -47 26 -29 36 -47 73 -134 11 -25 28 -65 39 -90 12 -29 19 -67 19 -110 -1
-97 -40 -151 -145 -202 -59 -28 -144 -65 -168 -73 -13 -4 -57 -22 -98 -41 -85
-39 -102 -41 -111 -16 -3 9 -55 132 -115 272 -59 140 -108 263 -108 275 0 16
16 26 78 49 42 16 82 33 87 37 9 6 184 78 225 92 34 12 117 6 156 -12z"/>
<path d="M17645 10913 c-33 -13 -64 -29 -70 -34 -12 -12 -1 -41 95 -264 43
-99 126 -295 185 -435 60 -140 111 -259 115 -263 7 -8 123 35 147 55 9 7 4 27
-19 81 -17 40 -50 117 -73 172 -23 55 -60 143 -83 195 -22 52 -73 172 -112
265 -96 227 -109 255 -118 254 -4 0 -34 -12 -67 -26z"/>
<path d="M17220 10390 c-208 -86 -250 -108 -297 -155 -52 -51 -76 -126 -63
-197 11 -58 111 -290 148 -343 55 -78 156 -112 256 -84 59 16 336 137 378 164
20 13 52 46 70 72 30 44 33 54 32 118 0 63 -7 85 -63 216 -86 201 -138 254
-259 265 -53 4 -68 0 -202 -56z m233 -137 c26 -30 117 -253 117 -288 0 -18 -6
-37 -12 -42 -7 -6 -91 -43 -187 -83 -215 -91 -203 -95 -278 74 -87 195 -86
200 62 261 22 9 81 34 130 55 101 43 144 48 168 23z"/>
<path d="M16410 10046 c-152 -64 -278 -118 -300 -129 -76 -37 -140 -136 -140
-218 0 -43 8 -72 44 -154 8 -16 33 -74 56 -128 49 -114 93 -159 178 -183 62
-18 114 -13 187 20 28 13 108 47 179 77 187 78 246 142 246 264 0 48 -8 79
-45 160 -7 17 -27 65 -45 108 -61 147 -135 207 -255 207 -30 0 -72 -10 -105
-24z m148 -163 c19 -17 91 -165 123 -255 23 -65 10 -77 -156 -148 -22 -10 -73
-32 -113 -49 -40 -17 -84 -31 -98 -31 -30 0 -64 16 -64 31 0 6 -23 62 -51 126
-57 132 -61 175 -19 199 56 31 321 143 341 143 9 1 26 -7 37 -16z"/>
<path d="M15457 9899 c-21 -5 -99 -35 -175 -67 -75 -33 -204 -88 -286 -123
-82 -35 -157 -72 -168 -83 -10 -11 -18 -32 -18 -47 0 -22 96 -263 165 -414 7
-16 34 -79 59 -140 89 -218 112 -261 144 -274 38 -16 26 -20 322 106 446 188
452 192 486 271 35 83 -5 222 -89 307 -43 44 -115 84 -149 85 -14 0 -17 11
-16 75 0 151 -69 268 -175 300 -28 8 -53 15 -56 14 -3 -1 -23 -5 -44 -10z m83
-211 c52 -115 11 -186 -145 -247 -51 -21 -214 -91 -223 -97 -3 -1 57 -143 65
-153 4 -6 84 27 258 104 164 73 216 76 276 19 33 -31 64 -97 56 -119 -4 -8
-19 -20 -34 -26 -25 -9 -209 -87 -408 -171 -38 -17 -83 -36 -98 -43 -32 -16
-21 -36 -144 255 -36 85 -80 190 -99 234 -33 77 -35 96 -11 96 7 0 111 43 232
95 121 52 228 95 238 95 12 0 25 -15 37 -42z"/>
<path d="M18130 9748 c-41 -18 -76 -33 -78 -34 -4 -2 21 -65 125 -309 49 -115
114 -268 144 -340 79 -189 140 -245 267 -245 46 0 163 43 351 128 127 58 177
107 190 191 12 73 0 121 -65 273 -68 157 -89 188 -152 225 -39 23 -58 28 -112
27 -66 -1 -72 -3 -367 -130 l-33 -14 26 -58 c14 -31 30 -67 34 -79 l9 -22 48
20 c26 11 55 24 63 28 45 24 201 81 222 81 39 0 60 -33 128 -206 36 -89 37
-114 8 -141 -29 -26 -320 -145 -356 -145 -33 0 -62 35 -87 105 -10 29 -21 57
-26 62 -4 6 -23 48 -42 95 -19 47 -57 137 -85 200 -27 63 -68 161 -92 218 -23
56 -43 102 -44 102 0 -1 -35 -15 -76 -32z"/>
<path d="M17936 9324 c-33 -13 -64 -28 -69 -33 -6 -6 13 -63 51 -153 33 -79
64 -152 68 -163 4 -11 24 -57 45 -103 22 -46 39 -89 39 -95 0 -15 -291 -137
-342 -144 -28 -4 -48 1 -81 20 -49 29 -52 34 -137 237 -85 205 -89 212 -114
204 -48 -15 -131 -61 -129 -72 7 -34 181 -421 198 -441 76 -90 132 -116 250
-116 89 0 91 1 265 74 274 115 293 127 293 179 0 15 -26 88 -57 162 -32 74
-64 149 -71 165 -7 17 -28 66 -47 110 -19 44 -46 106 -58 138 -13 31 -28 57
-34 56 -6 0 -38 -12 -70 -25z"/>
<path d="M16823 9196 c-40 -17 -73 -35 -73 -40 0 -5 9 -28 19 -50 10 -23 30
-68 44 -101 60 -143 141 -334 162 -380 12 -27 26 -61 30 -75 16 -52 87 -186
112 -212 67 -70 185 -89 282 -45 28 12 51 28 51 35 0 7 -11 37 -24 65 -13 29
-26 60 -30 71 -4 13 -10 15 -19 8 -23 -18 -88 -34 -113 -28 -26 7 -28 9 -109
196 -20 47 -45 104 -56 127 -10 24 -19 48 -19 54 0 6 -7 23 -15 37 -8 15 -33
72 -56 127 -22 55 -52 124 -65 153 -13 29 -24 56 -24 61 0 27 -29 26 -97 -3z"/>
<path d="M16605 9024 c-16 -7 -50 -22 -75 -32 -25 -11 -76 -33 -115 -50 -38
-17 -126 -54 -195 -82 -240 -98 -284 -130 -314 -221 -24 -77 -18 -132 24 -224
11 -22 49 -112 85 -200 88 -214 103 -243 152 -292 33 -33 54 -44 99 -53 61
-13 134 -6 174 16 14 7 63 29 110 48 47 18 135 55 195 81 61 26 145 61 187 79
43 17 78 37 78 43 0 10 -47 137 -56 151 -1 2 -17 -3 -36 -11 -18 -8 -121 -52
-228 -97 -107 -45 -226 -96 -263 -112 -38 -16 -82 -30 -98 -30 -32 -1 -65 23
-75 56 -7 21 -12 35 -72 171 -122 280 -132 320 -89 347 12 8 52 27 89 41 36
15 79 34 95 42 15 8 100 44 188 80 131 54 205 86 234 102 3 2 -57 154 -63 159
0 1 -14 -4 -31 -12z"/>
<path d="M7875 13148 c-51 -19 -75 -55 -75 -113 0 -78 77 -156 168 -171 42 -7
42 -6 42 25 0 17 1 34 3 37 1 4 -21 14 -49 23 -81 25 -100 52 -74 102 13 23
45 24 93 4 20 -8 41 -15 46 -15 13 0 19 69 7 79 -9 8 -52 21 -116 36 -8 2 -28
-2 -45 -7z"/>
<path d="M8140 13033 c-14 -27 -44 -79 -68 -118 l-42 -70 37 -13 c29 -9 43
-10 59 -1 30 16 102 -7 106 -33 2 -13 17 -25 43 -34 21 -7 40 -12 41 -11 2 1
-4 45 -12 97 -9 52 -18 117 -22 143 -7 48 -8 49 -62 68 -30 10 -54 19 -55 19
0 0 -11 -21 -25 -47z m70 -82 c0 -5 3 -23 6 -40 6 -28 4 -31 -18 -31 -35 0
-39 8 -21 46 16 32 33 45 33 25z"/>
<path d="M8372 12878 c-12 -68 -22 -126 -22 -130 0 -7 70 -32 74 -26 2 1 8 21
13 43 9 34 11 37 18 20 5 -11 11 -22 15 -25 3 -3 16 -20 29 -38 22 -31 35 -40
87 -56 19 -6 22 -2 26 30 4 33 1 37 -24 46 -34 12 -36 34 -4 42 16 4 28 17 35
39 16 48 -7 99 -54 121 -40 19 -144 55 -160 56 -6 0 -21 -55 -33 -122z m145
17 c20 -5 39 -33 29 -42 -3 -3 -23 -2 -45 2 -35 6 -41 10 -41 32 0 18 4 23 18
19 9 -2 27 -7 39 -11z"/>
<path d="M8654 12793 c-10 -65 -19 -124 -19 -132 0 -8 15 -19 34 -24 37 -9 51
1 51 40 0 31 14 36 56 18 51 -21 77 -19 109 11 23 22 27 31 22 64 -3 21 -14
48 -24 59 -18 20 -167 81 -196 81 -9 0 -20 -38 -33 -117z m141 13 c19 -8 35
-22 35 -30 0 -17 -11 -19 -59 -10 -24 5 -31 12 -31 30 0 28 8 29 55 10z"/>
<path d="M8942 12768 c-19 -89 -34 -187 -30 -198 4 -14 188 -77 233 -80 15 -1
25 58 11 68 -6 5 -44 19 -83 32 -40 14 -73 28 -73 32 0 12 23 10 71 -7 52 -19
69 -14 69 19 0 21 -7 27 -41 36 -71 19 -93 30 -83 40 6 6 38 0 87 -17 42 -15
78 -25 81 -22 2 2 7 20 11 39 l6 36 -108 33 c-59 18 -115 36 -124 38 -12 3
-18 -8 -27 -49z"/>
<path d="M9206 12629 c-9 -55 -14 -105 -11 -110 4 -5 1 -9 -4 -9 -6 0 -11 -9
-11 -20 0 -15 14 -24 66 -40 97 -29 129 -27 170 14 29 29 34 41 34 81 0 80
-47 135 -144 167 -84 28 -81 30 -100 -83z m151 -27 c28 -38 10 -92 -31 -92
-41 0 -49 14 -41 70 7 49 8 51 33 45 14 -3 32 -14 39 -23z"/>
<path d="M9485 12543 c-9 -54 -21 -111 -25 -126 -9 -26 -7 -29 25 -43 19 -8
38 -14 43 -14 5 0 16 46 26 103 9 56 19 114 22 129 5 23 1 30 -21 38 -49 19
-52 15 -70 -87z"/>
<path d="M9583 12483 c-12 -70 -19 -131 -15 -134 4 -4 59 -23 122 -42 122 -38
130 -38 130 15 0 25 -6 29 -85 53 -47 14 -85 30 -85 35 0 14 17 12 74 -5 65
-20 66 -20 66 13 0 26 -5 30 -60 47 -33 10 -60 24 -60 30 0 9 21 6 73 -10 39
-12 79 -24 87 -26 11 -3 16 6 18 37 l3 40 -118 37 c-65 20 -120 37 -123 37 -3
0 -15 -57 -27 -127z"/>
<path d="M9876 12493 c-20 -97 -37 -225 -31 -231 3 -4 21 -12 38 -18 l32 -11
10 51 10 51 19 -50 c25 -67 33 -75 54 -50 9 12 25 27 35 35 18 13 18 12 12
-32 l-7 -46 37 -12 c20 -7 38 -10 41 -7 8 8 45 239 40 252 -2 7 -21 16 -42 19
-32 7 -40 4 -69 -24 -18 -18 -38 -29 -43 -26 -6 3 -18 27 -28 52 -26 69 -97
99 -108 47z"/>
<path d="M10196 12404 c-16 -41 -7 -61 34 -74 45 -15 44 -12 25 -100 -22 -99
-21 -104 24 -116 l39 -11 6 39 c4 21 11 61 17 89 l11 51 43 -6 43 -7 4 36 c2
19 0 35 -4 35 -16 0 -23 2 -28 9 -3 4 -41 19 -85 33 -125 41 -122 40 -129 22z"/>
<path d="M10483 12284 c-13 -14 -23 -31 -23 -38 0 -17 62 -38 74 -26 24 24 82
-3 71 -32 -4 -9 -12 -15 -20 -12 -7 3 -15 -4 -18 -15 -3 -14 0 -21 9 -21 8 0
14 -9 14 -20 0 -26 -44 -27 -62 -2 -16 22 -50 42 -74 42 -13 0 -15 -6 -10 -32
3 -17 14 -40 24 -51 24 -28 91 -57 130 -57 47 0 67 24 67 79 0 28 5 50 14 57
19 15 8 67 -21 99 -23 24 -97 55 -133 55 -11 0 -30 -12 -42 -26z"/>
<path d="M10753 12188 c-96 -68 -46 -207 90 -252 31 -11 59 -17 62 -14 3 2 8
18 11 35 6 30 4 31 -52 53 -65 24 -74 32 -74 71 0 46 23 55 90 37 64 -17 70
-14 70 36 0 26 -40 44 -117 52 -40 4 -54 1 -80 -18z"/>
<path d="M10961 12053 c-27 -138 -27 -149 3 -157 13 -3 31 -8 39 -12 11 -4 16
7 21 46 6 47 9 51 29 44 68 -21 67 -19 60 -73 -5 -48 -4 -51 21 -61 50 -19 52
-16 70 98 10 59 20 117 23 128 3 17 -1 23 -20 28 -14 3 -32 9 -40 12 -12 4
-17 -4 -22 -33 -11 -63 -9 -62 -55 -49 l-42 11 5 51 c5 48 3 52 -19 63 -47 21
-50 16 -73 -96z m226 -5 c-3 -8 -6 -5 -6 6 -1 11 2 17 5 13 3 -3 4 -12 1 -19z"/>
<path d="M11227 11873 c-13 -12 -7 -54 8 -59 24 -9 17 -24 -10 -24 -14 0 -25
-4 -25 -10 0 -5 9 -10 21 -10 54 0 94 57 63 91 -17 19 -45 25 -57 12z"/>
<path d="M9326 10588 c-9 -56 -27 -231 -24 -232 21 -11 87 -28 125 -33 64 -7
109 15 129 64 40 94 -34 195 -159 217 -21 4 -45 10 -52 12 -9 4 -15 -5 -19
-28z m112 -74 c28 -8 53 -53 45 -82 -6 -26 -32 -35 -68 -26 -21 5 -25 11 -21
28 3 11 6 36 6 54 0 34 2 35 38 26z"/>
<path d="M9624 10505 c-33 -33 -28 -55 18 -71 31 -10 37 -10 42 2 7 18 31 18
50 -1 18 -18 11 -46 -10 -38 -9 3 -14 -2 -14 -17 0 -14 5 -20 13 -17 8 3 14
-4 15 -19 1 -21 -3 -24 -29 -24 -22 0 -32 5 -36 20 -3 10 -14 22 -24 25 -10 3
-28 8 -39 11 -17 4 -20 1 -20 -24 0 -44 34 -79 92 -97 71 -21 91 -19 118 10
19 20 22 31 16 64 -3 23 -2 42 4 46 19 12 11 71 -14 98 -21 23 -107 57 -143
57 -8 0 -25 -11 -39 -25z"/>
<path d="M9952 10433 c-5 -10 -33 -62 -61 -117 -29 -54 -51 -99 -49 -101 2 -1
18 -7 37 -14 28 -9 37 -8 50 3 23 21 111 1 111 -25 0 -13 12 -22 41 -29 23 -6
43 -9 46 -7 2 3 -3 31 -11 63 -8 33 -20 94 -27 136 l-13 77 -45 16 c-57 19
-68 19 -79 -2z m67 -155 c1 -13 -6 -18 -24 -18 -30 0 -32 19 -8 57 l17 26 7
-24 c4 -13 7 -32 8 -41z"/>
<path d="M10186 10363 c-14 -71 -27 -226 -19 -233 4 -4 37 -15 73 -24 63 -15
112 -12 146 12 27 18 46 75 39 118 -10 67 -67 118 -155 138 -38 9 -71 16 -74
16 -2 0 -7 -12 -10 -27z m139 -98 c28 -27 31 -43 11 -70 -12 -16 -69 -25 -83
-12 -2 3 -1 28 3 56 8 59 29 67 69 26z"/>
<path d="M10534 10288 c-13 -17 -114 -214 -114 -221 0 -4 18 -12 40 -18 34
-10 42 -10 53 3 10 13 18 13 60 1 26 -8 47 -20 47 -28 0 -18 7 -22 54 -31 36
-6 39 -5 31 12 -6 16 -22 91 -52 245 -4 20 -13 28 -33 32 -15 4 -39 9 -52 12
-15 4 -28 1 -34 -7z m70 -166 c5 -8 -1 -12 -16 -12 -43 0 -49 13 -25 50 l21
34 7 -30 c3 -17 9 -36 13 -42z"/>
<path d="M10775 10181 c-9 -31 -18 -63 -21 -72 -3 -13 4 -18 31 -23 20 -4 45
-4 55 -1 32 10 62 -12 58 -43 -4 -34 -30 -40 -58 -12 -21 21 -100 41 -100 25
0 -29 37 -77 73 -94 96 -45 167 -21 167 57 0 39 -74 92 -117 84 -16 -3 -27 18
-15 30 6 6 25 4 56 -6 73 -25 82 -22 84 23 2 36 0 39 -31 44 -17 4 -62 15 -99
25 l-67 19 -16 -56z"/>
<path d="M11027 10096 c-9 -39 -13 -73 -11 -76 3 -2 32 -5 64 -6 32 -1 64 -5
69 -9 15 -9 14 -40 -1 -53 -14 -11 -58 1 -58 17 0 5 -12 12 -27 15 -16 4 -36
9 -45 12 -29 9 -22 -31 13 -70 46 -53 149 -75 182 -38 44 48 18 122 -50 141
-21 6 -44 11 -50 11 -7 0 -13 7 -13 15 0 19 1 19 72 -1 32 -9 60 -15 62 -13 2
2 7 20 11 40 l7 36 -69 17 c-37 10 -84 21 -104 25 l-37 8 -15 -71z"/>
<path d="M11273 9903 c-18 -7 -16 -48 2 -63 21 -17 19 -28 -7 -33 -21 -4 -21
-4 3 -6 28 -1 69 35 69 61 0 16 -31 48 -46 47 -5 0 -15 -3 -21 -6z"/>
<path d="M9776 8498 c7 -40 18 -104 24 -143 6 -38 14 -73 18 -77 10 -10 117
-38 146 -38 34 0 66 43 66 89 0 96 -76 190 -178 221 -94 29 -91 31 -76 -52z
m145 -68 c24 -23 30 -37 27 -62 -2 -27 -8 -33 -28 -36 -38 -4 -47 8 -55 71 -6
50 -5 57 10 57 9 0 30 -13 46 -30z"/>
<path d="M10037 8494 c-6 -6 42 -287 50 -294 5 -4 53 -19 108 -35 55 -15 106
-30 113 -32 13 -5 16 26 6 63 -6 22 -59 44 -141 60 -18 4 -33 13 -33 20 0 18
8 17 60 -1 57 -20 60 -20 60 15 0 28 -4 31 -69 50 -53 16 -68 25 -64 36 3 9
12 13 22 8 26 -11 135 -44 137 -41 1 1 -1 20 -5 42 -6 37 -10 41 -56 56 -104
34 -184 57 -188 53z"/>
<path d="M10310 8411 c0 -4 29 -76 64 -161 l65 -154 46 -14 c26 -7 50 -11 53
-7 6 6 41 207 42 242 0 17 -8 24 -37 32 -20 6 -38 9 -40 8 -1 -2 -8 -41 -16
-87 -15 -95 -9 -99 -68 40 -17 41 -34 78 -38 83 -11 11 -71 27 -71 18z"/>
<path d="M10652 8293 c-66 -32 -54 -142 25 -229 75 -81 153 -91 188 -24 41 79
-37 218 -140 253 -37 13 -46 13 -73 0z m139 -140 c12 -33 12 -39 -7 -57 -14
-14 -18 -14 -44 -1 -49 25 -69 94 -33 114 22 12 70 -20 84 -56z"/>
<path d="M10925 8195 c-53 -52 -22 -160 67 -240 40 -36 57 -45 87 -45 111 0
112 148 2 255 -61 60 -116 70 -156 30z m109 -76 c34 -16 60 -72 46 -99 -15
-28 -37 -25 -71 9 -30 31 -38 68 -17 89 15 15 12 14 42 1z"/>
<path d="M11170 8158 c0 -26 31 -227 40 -260 6 -21 16 -38 23 -38 7 0 22 -3
34 -6 22 -6 23 -4 16 41 -6 47 -6 48 18 41 65 -19 94 -17 111 7 14 20 15 31 7
64 -16 63 -56 101 -130 124 -116 37 -119 38 -119 27z m165 -119 c29 -28 8 -45
-38 -30 -32 11 -53 41 -39 55 9 10 56 -6 77 -25z"/>
<path d="M11440 8062 c0 -17 4 -53 9 -79 5 -26 15 -80 21 -118 l12 -71 77 -23
c42 -13 95 -30 119 -37 l42 -13 0 29 c0 16 -5 32 -10 35 -6 4 -8 10 -6 14 4 5
-77 36 -151 57 -7 2 -13 8 -13 14 0 14 16 13 73 -5 l48 -14 -3 32 c-3 30 -7
33 -70 52 -50 15 -65 23 -59 33 6 11 15 11 47 -1 70 -25 108 -37 110 -34 2 1
0 21 -3 44 -6 47 6 40 -158 88 -33 10 -66 20 -72 22 -9 4 -13 -5 -13 -25z"/>
<path d="M11751 7950 c-14 -41 0 -74 51 -127 23 -24 39 -45 36 -48 -2 -3 -24
2 -48 10 -53 19 -50 19 -50 -7 0 -55 9 -63 87 -87 78 -25 95 -23 117 11 16 26
-13 94 -57 134 -21 20 -36 38 -34 41 3 3 28 -2 56 -10 l51 -15 -6 42 c-4 22
-10 45 -14 49 -9 10 -116 36 -152 37 -20 0 -28 -7 -37 -30z"/>
<path d="M3383 9502 c-35 -2 -63 -6 -62 -10 0 -4 26 -24 57 -44 83 -53 145
-110 185 -170 59 -89 68 -132 78 -348 12 -276 44 -390 133 -468 55 -48 124
-66 229 -59 50 3 94 10 100 16 17 17 37 124 43 236 10 188 -32 388 -112 532
-119 213 -360 329 -651 315z"/>
<path d="M3013 9296 c-35 -7 -65 -15 -68 -18 -3 -3 -9 -38 -15 -79 -35 -273
29 -530 172 -694 47 -53 166 -135 238 -163 104 -41 219 -62 370 -67 l145 -6
-49 25 c-201 104 -297 277 -331 601 -23 208 -87 321 -220 381 -63 29 -161 37
-242 20z"/>
</g>
</svg>
